<svg height="512" viewBox="0 0 512 512" width="512" xmlns="http://www.w3.org/2000/svg"><path d="m168 288h32v72h-32z" fill="#82462a"/><path d="m88 328h192v32h-192z" fill="#82462a"/><path d="m88 408h-32l96-384h32z" fill="#8f4d2e"/><path d="m280 408h32l-96-384h-32z" fill="#8f4d2e"/><path d="m24 56h320v208h-320z" fill="#e0e0de"/><path d="m56 264h256v32h-256z" fill="#8f4d2e"/><path d="m48 88h16v16h-16z" fill="#ebebe9"/><path d="m48 120h16v96h-16z" fill="#ebebe9"/><path d="m85.333 264h258.667v-208h-50.667z" fill="#d6d6d4"/><path d="m56 264h256v16h-256z" fill="#82462a"/><path d="m488 337.2v118.8h-336v-118.8a40.007 40.007 0 0 1 32.63-39.32l87.54-16.41a9.64 9.64 0 0 0 7.83-9.44v-72.03h80v72.03a9.64 9.64 0 0 0 7.83 9.44l87.54 16.41a40.007 40.007 0 0 1 32.63 39.32z" fill="#fec9a3"/><path d="m361.6 277.32a77.429 77.429 0 0 1 -17.57 2.71h-48a76.305 76.305 0 0 1 -16.65-2.46c-.33-.08-.65-.16-.98-.25a9.477 9.477 0 0 0 1.6-5.29v-72.03h80v72.03a9.477 9.477 0 0 0 1.6 5.29z" fill="#feb784"/><path d="m488 337.2v118.8h-336v-118.8a40.007 40.007 0 0 1 32.63-39.32l87.37-16.38 48 62.5 48-62.5 87.37 16.38a39.979 39.979 0 0 1 32.63 39.32z" fill="#919c48"/><path d="m224 384h192v104h-192z" fill="#919c48"/><path d="m312 344h16v120h-16z" fill="#82883a"/><path d="m320 344-48-62.5-18.034 3.381 26.034 75.119z" fill="#9aa955"/><path d="m320 344 48-62.5 18.034 3.381-26.034 75.119z" fill="#9aa955"/><path d="m488 337.2v118.8h-211.93c75.08-36.81 148.51-85.71 197.93-149.21a40.01 40.01 0 0 1 14 30.41z" fill="#909741"/><path d="m280 376h16v16h-16z" fill="#82883a"/><g fill="#feb784"><path d="m400 416 48-32h40v72h-32l-24 16h-48l-160 16h-48a24 24 0 0 1 -24-24v-48z"/><path d="m392 111.507h8a24 24 0 0 1 24 24 24 24 0 0 1 -24 24h-8a0 0 0 0 1 0 0v-48a0 0 0 0 1 0 0z"/><path d="m240.4 111.507h-.4a24.071 24.071 0 0 0 -24 24 24.071 24.071 0 0 0 24 24h8v-48z"/></g><path d="m392 103.51v64a72 72 0 0 1 -68.94 71.93c-1.01.05-2.03.07-3.06.07a72.006 72.006 0 0 1 -72-72v-64a72.006 72.006 0 0 1 72-72c.35 0 .71 0 1.06.01a72 72 0 0 1 70.94 71.99z" fill="#fec9a3"/><path d="m392 103.51v64a72 72 0 0 1 -68.94 71.93 71.975 71.975 0 0 0 37.94-63.44v-80a72.074 72.074 0 0 0 -39.94-64.48 72 72 0 0 1 70.94 71.99z" fill="#fec093"/><circle cx="356" cy="132" fill="#7a432a" r="12"/><circle cx="284" cy="132" fill="#7a432a" r="12"/><path d="m392 119.51v96.49a48 48 0 0 1 -48 48h-48c-1.05 0-2.08-.03-3.11-.1a48 48 0 0 1 -44.89-47.9v-96.49l24 48h96z" fill="#7a432a"/><path d="m339.992 185.078c-7.594 4.4-18.1 6.922-28.828 6.922h-15.164v16h15.164c13.656 0 26.742-3.223 36.844-9.078z" fill="#fec9a3"/><path d="m272 39.51-8.647 4.323a42.247 42.247 0 0 0 -23.353 37.786v29.891h8l24-40z" fill="#6e3c24"/><path d="m368 39.51v32l24 40h8v-31.01a42.245 42.245 0 0 0 -32-40.99z" fill="#6e3c24"/><path d="m368 71.51h-88a32 32 0 0 1 -32-32v-16h67.156a95.263 95.263 0 0 1 52.844 16z" fill="#7a432a"/><path d="m270.899 23.51 24.424 48h17.959l-24.425-48z" fill="#61311b"/><path d="m315.156 23.51h-4.256l24.424 48h17.959l-23.875-46.919a95.25 95.25 0 0 0 -14.252-1.081z" fill="#61311b"/><path d="m184.2 249.767-.2-1.767h-32l-.2 1.767c-2.889 26-4.509 52.1-5.1 78.233h42.6c-.595-26.131-2.215-52.235-5.1-78.233z" fill="#e0e0de"/><path d="m146.7 328c-.473 20.857-.335 41.73.658 62.584l4.642 97.416h32l4.639-97.416c.993-20.854 1.131-41.727.658-62.584z" fill="#95573a"/><path d="m189.3 328c-.592-26.131-2.212-52.235-5.1-78.233l-.2-1.767h-12.854c1.79 20.361 3.919 48.7 5.224 80z" fill="#d6d6d4"/><path d="m189.3 328h-12.93c2.223 53.351 1.993 115.068-6.512 160h14.142l4.639-97.416c.993-20.854 1.131-41.727.661-62.584z" fill="#8f4d2e"/><path d="m194.31 230.82-10.31 17.18h-32l-8.93-11.17a61.59 61.59 0 0 1 -13.51-38.51c0-1.43.05-2.87.15-4.31a61.675 61.675 0 0 1 4.84-19.95 15.831 15.831 0 0 0 -14.55-22.06h29.68a52.077 52.077 0 0 1 47.84 31.54 52.619 52.619 0 0 1 2.21 6.24 52.014 52.014 0 0 1 -5.42 41.04z" fill="#ebebe9"/><path d="m199.75 189.93a20.842 20.842 0 0 0 -19.39 1.83l-.72.48a20.981 20.981 0 0 1 -23.28 0 20.988 20.988 0 0 0 -24.24.67l-2.31 1.73a1.491 1.491 0 0 0 -.1-.63 61.675 61.675 0 0 1 4.84-19.95 15.831 15.831 0 0 0 -14.55-22.06h29.68a52.077 52.077 0 0 1 47.84 31.54 52.619 52.619 0 0 1 2.21 6.24.68.68 0 0 0 .02.15z" fill="#f98500"/><path d="m240 416-48-32h-56v72h48l24 16h48l160 16h48a24 24 0 0 0 24-24v-48z" fill="#fec9a3"/><path d="m392 119.51v96.49a48 48 0 0 1 -48 48h-48c-1.05 0-2.08-.03-3.11-.1a72.023 72.023 0 0 0 68.11-71.9v-24.49h7z" fill="#6e3c24"/></svg>